<svg xmlns="http://www.w3.org/2000/svg" width="1600" height="900" viewBox="0 0 1600 900" role="img" aria-labelledby="title desc">
  <title id="title">Saint Red Paper</title>
  <desc id="desc">Paper-white Obsidian theme preview card with restrained red accents.</desc>
  <defs>
    <linearGradient id="bg" x1="0%" y1="0%" x2="100%" y2="100%">
      <stop offset="0%" stop-color="#fffdfa"/>
      <stop offset="100%" stop-color="#f7f0ec"/>
    </linearGradient>
    <linearGradient id="accent" x1="0%" y1="0%" x2="100%" y2="0%">
      <stop offset="0%" stop-color="#cd2623"/>
      <stop offset="100%" stop-color="#e55a4b"/>
    </linearGradient>
  </defs>
  <rect width="1600" height="900" fill="url(#bg)"/>
  <rect x="94" y="88" width="1412" height="724" rx="30" fill="#ffffff" stroke="#e6ddd7"/>
  <rect x="94" y="88" width="1412" height="724" rx="30" fill="none" stroke="rgba(205,38,35,0.14)"/>
  <rect x="94" y="88" width="360" height="724" rx="30" fill="#fffefe"/>
  <rect x="454" y="88" width="1" height="724" fill="#efe5e4"/>
  <rect x="140" y="146" width="184" height="18" rx="9" fill="#f0e8e5"/>
  <rect x="140" y="190" width="268" height="56" rx="16" fill="#fff7f5" stroke="#f0d8d4"/>
  <rect x="140" y="266" width="268" height="56" rx="16" fill="#ffffff" stroke="#ece4e1"/>
  <rect x="140" y="342" width="268" height="56" rx="16" fill="#ffffff" stroke="#ece4e1"/>
  <rect x="140" y="418" width="210" height="12" rx="6" fill="#ede6e2"/>
  <rect x="140" y="448" width="246" height="12" rx="6" fill="#f1ebe7"/>
  <rect x="140" y="478" width="226" height="12" rx="6" fill="#f1ebe7"/>
  <rect x="520" y="150" width="230" height="16" rx="8" fill="#2f342d"/>
  <rect x="520" y="181" width="92" height="4" rx="2" fill="url(#accent)"/>
  <rect x="520" y="234" width="870" height="18" rx="9" fill="#3a372f"/>
  <rect x="520" y="275" width="760" height="12" rx="6" fill="#625d57"/>
  <rect x="520" y="304" width="790" height="12" rx="6" fill="#625d57"/>
  <rect x="520" y="333" width="734" height="12" rx="6" fill="#625d57"/>
  <rect x="520" y="385" width="180" height="14" rx="7" fill="#4b4741"/>
  <rect x="520" y="416" width="74" height="3" rx="1.5" fill="url(#accent)"/>
  <rect x="520" y="457" width="870" height="170" rx="18" fill="#fffdfc" stroke="#eadfda"/>
  <line x1="560" y1="512" x2="1350" y2="512" stroke="#d8d2cf" stroke-width="2"/>
  <line x1="560" y1="566" x2="1350" y2="566" stroke="#e7e1de" stroke-width="2"/>
  <line x1="560" y1="620" x2="1350" y2="620" stroke="#e7e1de" stroke-width="2"/>
  <line x1="560" y1="474" x2="1350" y2="474" stroke="#cd2623" stroke-width="3"/>
  <rect x="560" y="486" width="150" height="12" rx="6" fill="#47423d"/>
  <rect x="820" y="486" width="180" height="12" rx="6" fill="#47423d"/>
  <rect x="1120" y="486" width="128" height="12" rx="6" fill="#47423d"/>
  <rect x="560" y="532" width="200" height="10" rx="5" fill="#6a6560"/>
  <rect x="820" y="532" width="200" height="10" rx="5" fill="#6a6560"/>
  <rect x="1120" y="532" width="200" height="10" rx="5" fill="#6a6560"/>
  <rect x="560" y="586" width="160" height="10" rx="5" fill="#6a6560"/>
  <rect x="820" y="586" width="220" height="10" rx="5" fill="#6a6560"/>
  <rect x="1120" y="586" width="170" height="10" rx="5" fill="#6a6560"/>
  <rect x="560" y="640" width="190" height="10" rx="5" fill="#6a6560"/>
  <rect x="820" y="640" width="150" height="10" rx="5" fill="#6a6560"/>
  <rect x="1120" y="640" width="220" height="10" rx="5" fill="#6a6560"/>
  <text x="520" y="734" font-family="SUIT, -apple-system, BlinkMacSystemFont, sans-serif" font-size="46" font-weight="760" fill="#2f342d">Saint Red Paper</text>
  <text x="520" y="780" font-family="SUIT, -apple-system, BlinkMacSystemFont, sans-serif" font-size="24" fill="#736a64">A white-paper Obsidian theme for research notes, lab logs, and long-form writing.</text>
  <circle cx="1364" cy="164" r="10" fill="#cd2623"/>
  <circle cx="1398" cy="164" r="10" fill="#f2c14a"/>
  <circle cx="1432" cy="164" r="10" fill="#5ba86c"/>
</svg>
